<svg viewBox="0 0 649 647" xmlns="http://www.w3.org/2000/svg" fill-rule="evenodd" clip-rule="evenodd" stroke-linejoin="round" stroke-miterlimit="2"><path d="M311.515 11.73c.45-6.6 5.94-11.73 12.56-11.73s12.11 5.13 12.56 11.73c2.52 37.06 4.42 64.88 4.42 64.88s13.71-17.87 19.31-17.1c5.61.77 14.32 21.72 14.32 21.72s9.33-26.28 21.76-61.28c2.22-6.23 8.88-9.69 15.26-7.9 6.38 1.78 10.28 8.2 8.93 14.68-7.57 36.36-13.25 63.66-13.25 63.66s17.69-13.55 22.88-11.29c5.19 2.25 8.26 24.82 8.26 24.82s16.07-22.79 37.48-53.14c3.82-5.4 11.17-6.93 16.83-3.5 5.66 3.44 7.68 10.68 4.64 16.56-17.1 32.97-29.94 57.72-29.94 57.72s20.35-8.32 24.74-4.75c4.39 3.57 1.6 26.18 1.6 26.18s21.62-17.6 50.43-41.05c5.13-4.18 12.63-3.67 17.15 1.17 4.51 4.84 4.51 12.35-.01 17.19-25.36 27.13-44.39 47.5-44.39 47.5s21.5-2.57 24.77 2.06c3.26 4.62-5.19 25.68-5.19 25.68s25.57-11.11 59.63-25.92c6.07-2.64 13.15-.13 16.2 5.75 3.04 5.88 1.01 13.11-4.64 16.55-31.74 19.29-55.57 33.77-55.57 33.77s21.07 3.28 22.96 8.62c1.9 5.33-11.59 23.37-11.59 23.37s27.62-3.8 64.41-8.87c6.56-.9 12.7 3.43 14.05 9.91 1.34 6.48-2.56 12.9-8.94 14.68-35.76 10.01-62.61 17.53-62.61 17.53s19.06 8.8 19.45 14.44c.39 5.65-17.14 19.43-17.14 19.43s27.63 3.79 64.42 8.84c6.56.9 11.31 6.72 10.85 13.33-.45 6.6-5.94 11.73-12.56 11.73-37.14-.01-65.02-.02-65.02-.02s15.65 13.57 14.5 19.11c-1.15 5.54-21.41 14.13-21.41 14.13s25.58 11.1 59.65 25.89c6.07 2.63 9.06 9.52 6.85 15.76-2.22 6.24-8.89 9.69-15.27 7.91-35.76-10.03-62.6-17.57-62.6-17.57s11.07 17.25 8.47 22.27c-2.6 5.03-24.09 7.88-24.09 7.88s21.63 17.59 50.45 41.02a12.587 12.587 0 012.34 17.03c-3.82 5.41-11.17 6.94-16.83 3.49-31.72-19.3-55.54-33.8-55.54-33.8s5.67 19.55 1.81 23.68c-3.86 4.14-24.99 1.14-24.99 1.14l37.52 53.1c3.81 5.41 2.79 12.86-2.34 17.03-5.14 4.18-12.63 3.67-17.15-1.17l-44.37-47.54s-.14 20.31-4.97 23.25c-4.84 2.94-24.04-5.6-24.04-5.6s9.35 26.26 21.8 61.26c2.22 6.24-.78 13.13-6.85 15.76-6.07 2.64-13.15.12-16.19-5.75l-29.9-57.75s-5.95 19.47-11.4 21c-5.45 1.53-21.3-11.84-21.3-11.84s1.92 27.82 4.46 64.87c.46 6.61-4.28 12.44-10.84 13.34a12.6 12.6 0 01-14.05-9.92l-13.2-63.66s-11.32 17.09-16.98 17.09-16.98-17.09-16.98-17.09-5.66 27.3-13.21 63.66c-1.34 6.49-7.48 10.82-14.04 9.92-6.56-.9-11.3-6.73-10.84-13.34 2.54-37.05 4.45-64.87 4.45-64.87s-15.84 13.37-21.29 11.84c-5.45-1.53-11.4-21-11.4-21l-29.9 57.75c-3.04 5.87-10.12 8.39-16.19 5.75-6.07-2.63-9.07-9.52-6.85-15.76 12.45-35 21.8-61.26 21.8-61.26s-19.2 8.54-24.04 5.6c-4.83-2.94-4.97-23.25-4.97-23.25l-44.37 47.54c-4.52 4.84-12.01 5.35-17.15 1.17-5.14-4.17-6.16-11.62-2.34-17.03l37.52-53.1s-21.13 3-24.99-1.14c-3.86-4.13 1.81-23.68 1.81-23.68s-23.82 14.5-55.544 33.8c-5.656 3.45-13.012 1.92-16.83-3.49-3.818-5.41-2.794-12.85 2.343-17.03l50.451-41.02s-21.487-2.85-24.09-7.88c-2.604-5.02 8.47-22.27 8.47-22.27s-26.846 7.54-62.606 17.57c-6.375 1.78-13.045-1.67-15.263-7.91-2.217-6.24.777-13.13 6.851-15.76 34.07-14.79 59.649-25.89 59.649-25.89s-20.258-8.59-21.409-14.13c-1.151-5.54 14.5-19.11 14.5-19.11s-27.883.01-65.023.02C5.973 358.7.482 353.57.03 346.97a12.585 12.585 0 0110.849-13.33L75.3 324.8s-17.522-13.78-17.136-19.43c.386-5.64 19.453-14.44 19.453-14.44s-26.852-7.52-62.618-17.53c-6.376-1.78-10.28-8.2-8.933-14.68 1.347-6.48 7.485-10.81 14.044-9.91 36.793 5.07 64.416 8.87 64.416 8.87s-13.489-18.04-11.594-23.37c1.895-5.34 22.963-8.62 22.963-8.62l-55.567-33.77a12.589 12.589 0 01-4.64-16.55c3.046-5.88 10.125-8.39 16.197-5.75 34.06 14.81 59.63 25.92 59.63 25.92s-8.45-21.06-5.19-25.68c3.26-4.63 24.77-2.06 24.77-2.06s-19.04-20.37-44.395-47.5c-4.52-4.84-4.522-12.35-.003-17.19 4.518-4.84 12.018-5.35 17.148-1.17 28.8 23.45 50.43 41.05 50.43 41.05s-2.8-22.61 1.59-26.18c4.39-3.57 24.75 4.75 24.75 4.75s-12.84-24.75-29.94-57.72c-3.04-5.88-1.02-13.12 4.64-16.56 5.65-3.43 13.01-1.9 16.83 3.5 21.4 30.35 37.48 53.14 37.48 53.14s3.07-22.57 8.26-24.82c5.19-2.26 22.88 11.29 22.88 11.29s-5.68-27.3-13.25-63.66c-1.35-6.48 2.55-12.9 8.93-14.68 6.37-1.79 13.04 1.67 15.26 7.9 12.43 35 21.75 61.28 21.75 61.28s8.72-20.95 14.33-21.72c5.6-.77 19.31 17.1 19.31 17.1s1.9-27.82 4.42-64.88zm-.68 125.78c.45-6.61 5.94-11.74 12.56-11.74s12.11 5.13 12.56 11.74c.07 1.11.11 1.7.11 1.7s10.24-13.34 14.43-12.76c4.18.57 10.69 16.22 10.69 16.22s.2-.56.57-1.61c2.22-6.24 8.89-9.7 15.26-7.92 6.38 1.79 10.28 8.21 8.93 14.69l-.35 1.68s13.21-10.12 17.09-8.44c3.87 1.68 6.17 18.54 6.17 18.54s.34-.49.98-1.4a12.592 12.592 0 0116.83-3.5c5.66 3.44 7.68 10.67 4.64 16.55-.52.99-.79 1.52-.79 1.52s15.19-6.21 18.47-3.55c3.28 2.67 1.2 19.55 1.2 19.55s.45-.37 1.32-1.08c5.14-4.18 12.63-3.67 17.15 1.17a12.59 12.59 0 010 17.19c-.77.82-1.17 1.25-1.17 1.25s16.06-1.92 18.5 1.53c2.43 3.45-3.88 19.18-3.88 19.18s.54-.24 1.57-.68c6.07-2.64 13.15-.13 16.2 5.75 3.04 5.88 1.01 13.11-4.65 16.55l-1.46.89s15.73 2.45 17.15 6.43c1.42 3.98-8.66 17.46-8.66 17.46l1.7-.23c6.56-.91 12.7 3.42 14.04 9.91 1.35 6.48-2.56 12.9-8.93 14.68-1.08.3-1.65.46-1.65.46s14.24 6.57 14.53 10.79c.28 4.21-12.8 14.51-12.8 14.51l1.7.23c6.56.9 11.3 6.72 10.85 13.33-.46 6.6-5.95 11.73-12.57 11.73h-1.71s11.69 10.13 10.83 14.27c-.86 4.13-15.99 10.55-15.99 10.55s.55.24 1.57.68c6.08 2.64 9.07 9.53 6.85 15.77-2.21 6.24-8.88 9.69-15.26 7.9-1.08-.3-1.65-.46-1.65-.46s8.27 12.88 6.33 16.63c-1.94 3.75-17.99 5.88-17.99 5.88s.46.37 1.33 1.08c5.13 4.18 6.16 11.62 2.34 17.03-3.82 5.41-11.17 6.93-16.83 3.49-.96-.58-1.46-.89-1.46-.89s4.24 14.6 1.35 17.69c-2.88 3.08-18.65.84-18.65.84s.34.48.98 1.4a12.587 12.587 0 01-19.48 15.85c-.77-.82-1.17-1.25-1.17-1.25s-.11 15.16-3.72 17.36c-3.61 2.19-17.94-4.19-17.94-4.19s.2.56.57 1.61c2.22 6.24-.77 13.13-6.84 15.77-6.08 2.64-13.16.12-16.2-5.76-.51-.99-.79-1.52-.79-1.52s-4.44 14.54-8.51 15.68c-4.07 1.14-15.9-8.84-15.9-8.84s.04.59.12 1.71c.45 6.6-4.29 12.43-10.85 13.34-6.56.9-12.69-3.44-14.04-9.92-.23-1.09-.35-1.67-.35-1.67s-8.45 12.76-12.67 12.76c-4.23 0-12.68-12.76-12.68-12.76s-.12.58-.35 1.67c-1.34 6.48-7.48 10.82-14.04 9.92-6.56-.91-11.3-6.74-10.84-13.34.08-1.12.12-1.71.12-1.71s-11.84 9.98-15.91 8.84c-4.06-1.14-8.51-15.68-8.51-15.68s-.27.53-.78 1.52c-3.05 5.88-10.13 8.4-16.2 5.76-6.07-2.64-9.06-9.53-6.84-15.77.37-1.05.57-1.61.57-1.61s-14.34 6.38-17.95 4.19c-3.61-2.2-3.71-17.36-3.71-17.36s-.41.43-1.17 1.25c-4.52 4.84-12.01 5.35-17.15 1.18-5.13-4.18-6.15-11.62-2.34-17.03l.99-1.4s-15.77 2.24-18.66-.84c-2.88-3.09 1.36-17.69 1.36-17.69l-1.46.89c-5.66 3.44-13.02 1.92-16.83-3.49a12.587 12.587 0 012.34-17.03c.87-.71 1.33-1.08 1.33-1.08s-16.05-2.13-17.99-5.88c-1.95-3.75 6.32-16.63 6.32-16.63l-1.64.46c-6.38 1.79-13.05-1.66-15.27-7.9-2.21-6.24.78-13.13 6.85-15.77 1.03-.44 1.57-.68 1.57-.68s-15.12-6.42-15.98-10.55c-.86-4.14 10.82-14.27 10.82-14.27h-1.71c-6.62 0-12.11-5.13-12.56-11.73a12.586 12.586 0 0110.85-13.33c1.11-.15 1.69-.23 1.69-.23s-13.08-10.3-12.79-14.51c.29-4.22 14.52-10.79 14.52-10.79l-1.64-.46c-6.38-1.78-10.28-8.2-8.94-14.68 1.35-6.49 7.49-10.82 14.05-9.91 1.11.15 1.69.23 1.69.23s-10.07-13.48-8.65-17.46c1.41-3.98 17.14-6.43 17.14-6.43s-.5-.31-1.46-.89c-5.66-3.44-7.68-10.67-4.64-16.55a12.592 12.592 0 0116.2-5.75c1.02.44 1.57.68 1.57.68s-6.32-15.73-3.88-19.18c2.44-3.45 18.5-1.53 18.5-1.53s-.41-.43-1.17-1.25a12.59 12.59 0 010-17.19c4.52-4.84 12.01-5.35 17.15-1.17.86.71 1.32 1.08 1.32 1.08s-2.08-16.88 1.19-19.55c3.28-2.66 18.48 3.55 18.48 3.55s-.28-.53-.79-1.52c-3.05-5.88-1.02-13.11 4.64-16.55 5.65-3.44 13.01-1.91 16.82 3.5.65.91.99 1.4.99 1.4s2.29-16.86 6.17-18.54c3.88-1.68 17.08 8.44 17.08 8.44l-.35-1.68c-1.35-6.48 2.56-12.9 8.93-14.69 6.38-1.78 13.05 1.68 15.26 7.92.38 1.05.58 1.61.58 1.61s6.5-15.65 10.69-16.22c4.18-.58 14.42 12.76 14.42 12.76s.04-.59.12-1.7zm17.9 209.82c26.94 0 48.8 21.87 48.8 48.8 0 26.94-21.86 48.8-48.8 48.8-26.93 0-48.8-21.86-48.8-48.8 0-26.93 21.87-48.8 48.8-48.8zm-91.02-64.7c22.64 0 41.02 18.39 41.02 41.03 0 22.65-18.38 41.03-41.02 41.03-22.65 0-41.03-18.38-41.03-41.03 0-22.64 18.38-41.03 41.03-41.03zm145.49-88.4c37.03 0 67.1 30.07 67.1 67.1 0 37.03-30.07 67.09-67.1 67.09-37.03 0-67.09-30.06-67.09-67.09s30.06-67.1 67.09-67.1z"/></svg>