<?xml version="1.0" encoding="UTF-8" standalone="no"?>
<!DOCTYPE svg PUBLIC "-//W3C//DTD SVG 1.1//EN" "http://www.w3.org/Graphics/SVG/1.1/DTD/svg11.dtd">
<svg width="100%" height="100%" viewBox="0 0 649 647" version="1.1" xmlns="http://www.w3.org/2000/svg" xmlns:xlink="http://www.w3.org/1999/xlink" xml:space="preserve" xmlns:serif="http://www.serif.com/" style="fill-rule:evenodd;clip-rule:evenodd;stroke-linejoin:round;stroke-miterlimit:2;">
    <g transform="matrix(1,0,0,1,-909.695,-1445.93)">
        <path d="M1221.21,1457.66C1221.66,1451.06 1227.15,1445.93 1233.77,1445.93C1240.39,1445.93 1245.88,1451.06 1246.33,1457.66C1248.85,1494.72 1250.75,1522.54 1250.75,1522.54C1250.75,1522.54 1264.46,1504.67 1270.06,1505.44C1275.67,1506.21 1284.38,1527.16 1284.38,1527.16C1284.38,1527.16 1293.71,1500.88 1306.14,1465.88C1308.36,1459.65 1315.02,1456.19 1321.4,1457.98C1327.78,1459.76 1331.68,1466.18 1330.33,1472.66C1322.76,1509.02 1317.08,1536.32 1317.08,1536.32C1317.08,1536.32 1334.77,1522.77 1339.96,1525.03C1345.15,1527.28 1348.22,1549.85 1348.22,1549.85C1348.22,1549.85 1364.29,1527.06 1385.7,1496.71C1389.52,1491.31 1396.87,1489.78 1402.53,1493.21C1408.19,1496.65 1410.21,1503.89 1407.17,1509.77C1390.07,1542.74 1377.23,1567.49 1377.23,1567.49C1377.23,1567.49 1397.58,1559.17 1401.97,1562.74C1406.36,1566.31 1403.57,1588.92 1403.57,1588.92C1403.57,1588.92 1425.19,1571.32 1454,1547.87C1459.13,1543.69 1466.63,1544.2 1471.15,1549.04C1475.66,1553.88 1475.66,1561.39 1471.14,1566.23C1445.78,1593.36 1426.75,1613.73 1426.75,1613.73C1426.75,1613.73 1448.25,1611.16 1451.52,1615.79C1454.78,1620.41 1446.33,1641.47 1446.33,1641.47C1446.33,1641.47 1471.9,1630.36 1505.96,1615.55C1512.03,1612.91 1519.11,1615.42 1522.16,1621.3C1525.2,1627.18 1523.17,1634.41 1517.52,1637.85C1485.78,1657.14 1461.95,1671.62 1461.95,1671.62C1461.95,1671.62 1483.02,1674.9 1484.91,1680.24C1486.81,1685.57 1473.32,1703.61 1473.32,1703.61C1473.32,1703.61 1500.94,1699.81 1537.73,1694.74C1544.29,1693.84 1550.43,1698.17 1551.78,1704.65C1553.12,1711.13 1549.22,1717.55 1542.84,1719.33C1507.08,1729.34 1480.23,1736.86 1480.23,1736.86C1480.23,1736.86 1499.29,1745.66 1499.68,1751.3C1500.07,1756.95 1482.54,1770.73 1482.54,1770.73C1482.54,1770.73 1510.17,1774.52 1546.96,1779.57C1553.52,1780.47 1558.27,1786.29 1557.81,1792.9C1557.36,1799.5 1551.87,1804.63 1545.25,1804.63C1508.11,1804.62 1480.23,1804.61 1480.23,1804.61C1480.23,1804.61 1495.88,1818.18 1494.73,1823.72C1493.58,1829.26 1473.32,1837.85 1473.32,1837.85C1473.32,1837.85 1498.9,1848.95 1532.97,1863.74C1539.04,1866.37 1542.03,1873.26 1539.82,1879.5C1537.6,1885.74 1530.93,1889.19 1524.55,1887.41C1488.79,1877.38 1461.95,1869.84 1461.95,1869.84C1461.95,1869.84 1473.02,1887.09 1470.42,1892.11C1467.82,1897.14 1446.33,1899.99 1446.33,1899.99C1446.33,1899.99 1467.96,1917.58 1496.78,1941.01C1501.92,1945.19 1502.94,1952.63 1499.12,1958.04C1495.3,1963.45 1487.95,1964.98 1482.29,1961.53C1450.57,1942.23 1426.75,1927.73 1426.75,1927.73C1426.75,1927.73 1432.42,1947.28 1428.56,1951.41C1424.7,1955.55 1403.57,1952.55 1403.57,1952.55C1403.57,1952.55 1419.66,1975.32 1441.09,2005.65C1444.9,2011.06 1443.88,2018.51 1438.75,2022.68C1433.61,2026.86 1426.12,2026.35 1421.6,2021.51C1396.26,1994.36 1377.23,1973.97 1377.23,1973.97C1377.23,1973.97 1377.09,1994.28 1372.26,1997.22C1367.42,2000.16 1348.22,1991.62 1348.22,1991.62C1348.22,1991.62 1357.57,2017.88 1370.02,2052.88C1372.24,2059.12 1369.24,2066.01 1363.17,2068.64C1357.1,2071.28 1350.02,2068.76 1346.98,2062.89C1329.9,2029.9 1317.08,2005.14 1317.08,2005.14C1317.08,2005.14 1311.13,2024.61 1305.68,2026.14C1300.23,2027.67 1284.38,2014.3 1284.38,2014.3C1284.38,2014.3 1286.3,2042.12 1288.84,2079.17C1289.3,2085.78 1284.56,2091.61 1278,2092.51C1271.44,2093.41 1265.3,2089.08 1263.95,2082.59C1256.41,2046.23 1250.75,2018.93 1250.75,2018.93C1250.75,2018.93 1239.43,2036.02 1233.77,2036.02C1228.11,2036.02 1216.79,2018.93 1216.79,2018.93C1216.79,2018.93 1211.13,2046.23 1203.58,2082.59C1202.24,2089.08 1196.1,2093.41 1189.54,2092.51C1182.98,2091.61 1178.24,2085.78 1178.7,2079.17C1181.24,2042.12 1183.15,2014.3 1183.15,2014.3C1183.15,2014.3 1167.31,2027.67 1161.86,2026.14C1156.41,2024.61 1150.46,2005.14 1150.46,2005.14C1150.46,2005.14 1137.64,2029.9 1120.56,2062.89C1117.52,2068.76 1110.44,2071.28 1104.37,2068.64C1098.3,2066.01 1095.3,2059.12 1097.52,2052.88C1109.97,2017.88 1119.32,1991.62 1119.32,1991.62C1119.32,1991.62 1100.12,2000.16 1095.28,1997.22C1090.45,1994.28 1090.31,1973.97 1090.31,1973.97C1090.31,1973.97 1071.28,1994.36 1045.94,2021.51C1041.42,2026.35 1033.93,2026.86 1028.79,2022.68C1023.65,2018.51 1022.63,2011.06 1026.45,2005.65C1047.88,1975.32 1063.97,1952.55 1063.97,1952.55C1063.97,1952.55 1042.84,1955.55 1038.98,1951.41C1035.12,1947.28 1040.79,1927.73 1040.79,1927.73C1040.79,1927.73 1016.97,1942.23 985.246,1961.53C979.59,1964.98 972.234,1963.45 968.416,1958.04C964.598,1952.63 965.622,1945.19 970.759,1941.01C999.577,1917.58 1021.21,1899.99 1021.21,1899.99C1021.21,1899.99 999.723,1897.14 997.12,1892.11C994.516,1887.09 1005.59,1869.84 1005.59,1869.84C1005.59,1869.84 978.744,1877.38 942.984,1887.41C936.609,1889.19 929.939,1885.74 927.721,1879.5C925.504,1873.26 928.498,1866.37 934.572,1863.74C968.642,1848.95 994.221,1837.85 994.221,1837.85C994.221,1837.85 973.963,1829.26 972.812,1823.72C971.661,1818.18 987.312,1804.61 987.312,1804.61C987.312,1804.61 959.429,1804.62 922.289,1804.63C915.668,1804.63 910.177,1799.5 909.725,1792.9C909.273,1786.29 914.015,1780.47 920.574,1779.57C957.37,1774.52 984.995,1770.73 984.995,1770.73C984.995,1770.73 967.473,1756.95 967.859,1751.3C968.245,1745.66 987.312,1736.86 987.312,1736.86C987.312,1736.86 960.46,1729.34 924.694,1719.33C918.318,1717.55 914.414,1711.13 915.761,1704.65C917.108,1698.17 923.246,1693.84 929.805,1694.74C966.598,1699.81 994.221,1703.61 994.221,1703.61C994.221,1703.61 980.732,1685.57 982.627,1680.24C984.522,1674.9 1005.59,1671.62 1005.59,1671.62C1005.59,1671.62 981.762,1657.14 950.023,1637.85C944.365,1634.41 942.337,1627.18 945.383,1621.3C948.429,1615.42 955.508,1612.91 961.58,1615.55C995.64,1630.36 1021.21,1641.47 1021.21,1641.47C1021.21,1641.47 1012.76,1620.41 1016.02,1615.79C1019.28,1611.16 1040.79,1613.73 1040.79,1613.73C1040.79,1613.73 1021.75,1593.36 996.395,1566.23C991.875,1561.39 991.873,1553.88 996.392,1549.04C1000.91,1544.2 1008.41,1543.69 1013.54,1547.87C1042.34,1571.32 1063.97,1588.92 1063.97,1588.92C1063.97,1588.92 1061.17,1566.31 1065.56,1562.74C1069.95,1559.17 1090.31,1567.49 1090.31,1567.49C1090.31,1567.49 1077.47,1542.74 1060.37,1509.77C1057.33,1503.89 1059.35,1496.65 1065.01,1493.21C1070.66,1489.78 1078.02,1491.31 1081.84,1496.71C1103.24,1527.06 1119.32,1549.85 1119.32,1549.85C1119.32,1549.85 1122.39,1527.28 1127.58,1525.03C1132.77,1522.77 1150.46,1536.32 1150.46,1536.32C1150.46,1536.32 1144.78,1509.02 1137.21,1472.66C1135.86,1466.18 1139.76,1459.76 1146.14,1457.98C1152.51,1456.19 1159.18,1459.65 1161.4,1465.88C1173.83,1500.88 1183.15,1527.16 1183.15,1527.16C1183.15,1527.16 1191.87,1506.21 1197.48,1505.44C1203.08,1504.67 1216.79,1522.54 1216.79,1522.54C1216.79,1522.54 1218.69,1494.72 1221.21,1457.66ZM1220.53,1583.44C1220.98,1576.83 1226.47,1571.7 1233.09,1571.7C1239.71,1571.7 1245.2,1576.83 1245.65,1583.44C1245.72,1584.55 1245.76,1585.14 1245.76,1585.14C1245.76,1585.14 1256,1571.8 1260.19,1572.38C1264.37,1572.95 1270.88,1588.6 1270.88,1588.6C1270.88,1588.6 1271.08,1588.04 1271.45,1586.99C1273.67,1580.75 1280.34,1577.29 1286.71,1579.07C1293.09,1580.86 1296.99,1587.28 1295.64,1593.76C1295.41,1594.86 1295.29,1595.44 1295.29,1595.44C1295.29,1595.44 1308.5,1585.32 1312.38,1587C1316.25,1588.68 1318.55,1605.54 1318.55,1605.54C1318.55,1605.54 1318.89,1605.05 1319.53,1604.14C1323.35,1598.73 1330.7,1597.2 1336.36,1600.64C1342.02,1604.08 1344.04,1611.31 1341,1617.19C1340.48,1618.18 1340.21,1618.71 1340.21,1618.71C1340.21,1618.71 1355.4,1612.5 1358.68,1615.16C1361.96,1617.83 1359.88,1634.71 1359.88,1634.71C1359.88,1634.71 1360.33,1634.34 1361.2,1633.63C1366.34,1629.45 1373.83,1629.96 1378.35,1634.8C1382.87,1639.64 1382.87,1647.15 1378.35,1651.99C1377.58,1652.81 1377.18,1653.24 1377.18,1653.24C1377.18,1653.24 1393.24,1651.32 1395.68,1654.77C1398.11,1658.22 1391.8,1673.95 1391.8,1673.95C1391.8,1673.95 1392.34,1673.71 1393.37,1673.27C1399.44,1670.63 1406.52,1673.14 1409.57,1679.02C1412.61,1684.9 1410.58,1692.13 1404.92,1695.57C1403.97,1696.15 1403.46,1696.46 1403.46,1696.46C1403.46,1696.46 1419.19,1698.91 1420.61,1702.89C1422.03,1706.87 1411.95,1720.35 1411.95,1720.35C1411.95,1720.35 1412.54,1720.27 1413.65,1720.12C1420.21,1719.21 1426.35,1723.54 1427.69,1730.03C1429.04,1736.51 1425.13,1742.93 1418.76,1744.71C1417.68,1745.01 1417.11,1745.17 1417.11,1745.17C1417.11,1745.17 1431.35,1751.74 1431.64,1755.96C1431.92,1760.17 1418.84,1770.47 1418.84,1770.47C1418.84,1770.47 1419.43,1770.55 1420.54,1770.7C1427.1,1771.6 1431.84,1777.42 1431.39,1784.03C1430.93,1790.63 1425.44,1795.76 1418.82,1795.76C1417.7,1795.76 1417.11,1795.76 1417.11,1795.76C1417.11,1795.76 1428.8,1805.89 1427.94,1810.03C1427.08,1814.16 1411.95,1820.58 1411.95,1820.58C1411.95,1820.58 1412.5,1820.82 1413.52,1821.26C1419.6,1823.9 1422.59,1830.79 1420.37,1837.03C1418.16,1843.27 1411.49,1846.72 1405.11,1844.93C1404.03,1844.63 1403.46,1844.47 1403.46,1844.47C1403.46,1844.47 1411.73,1857.35 1409.79,1861.1C1407.85,1864.85 1391.8,1866.98 1391.8,1866.98C1391.8,1866.98 1392.26,1867.35 1393.13,1868.06C1398.26,1872.24 1399.29,1879.68 1395.47,1885.09C1391.65,1890.5 1384.3,1892.02 1378.64,1888.58C1377.68,1888 1377.18,1887.69 1377.18,1887.69C1377.18,1887.69 1381.42,1902.29 1378.53,1905.38C1375.65,1908.46 1359.88,1906.22 1359.88,1906.22C1359.88,1906.22 1360.22,1906.7 1360.86,1907.62C1364.68,1913.03 1363.66,1920.47 1358.52,1924.65C1353.39,1928.82 1345.89,1928.31 1341.38,1923.47C1340.61,1922.65 1340.21,1922.22 1340.21,1922.22C1340.21,1922.22 1340.1,1937.38 1336.49,1939.58C1332.88,1941.77 1318.55,1935.39 1318.55,1935.39C1318.55,1935.39 1318.75,1935.95 1319.12,1937C1321.34,1943.24 1318.35,1950.13 1312.28,1952.77C1306.2,1955.41 1299.12,1952.89 1296.08,1947.01C1295.57,1946.02 1295.29,1945.49 1295.29,1945.49C1295.29,1945.49 1290.85,1960.03 1286.78,1961.17C1282.71,1962.31 1270.88,1952.33 1270.88,1952.33C1270.88,1952.33 1270.92,1952.92 1271,1954.04C1271.45,1960.64 1266.71,1966.47 1260.15,1967.38C1253.59,1968.28 1247.46,1963.94 1246.11,1957.46C1245.88,1956.37 1245.76,1955.79 1245.76,1955.79C1245.76,1955.79 1237.31,1968.55 1233.09,1968.55C1228.86,1968.55 1220.41,1955.79 1220.41,1955.79C1220.41,1955.79 1220.29,1956.37 1220.06,1957.46C1218.72,1963.94 1212.58,1968.28 1206.02,1967.38C1199.46,1966.47 1194.72,1960.64 1195.18,1954.04C1195.26,1952.92 1195.3,1952.33 1195.3,1952.33C1195.3,1952.33 1183.46,1962.31 1179.39,1961.17C1175.33,1960.03 1170.88,1945.49 1170.88,1945.49C1170.88,1945.49 1170.61,1946.02 1170.1,1947.01C1167.05,1952.89 1159.97,1955.41 1153.9,1952.77C1147.83,1950.13 1144.84,1943.24 1147.06,1937C1147.43,1935.95 1147.63,1935.39 1147.63,1935.39C1147.63,1935.39 1133.29,1941.77 1129.68,1939.58C1126.07,1937.38 1125.97,1922.22 1125.97,1922.22C1125.97,1922.22 1125.56,1922.65 1124.8,1923.47C1120.28,1928.31 1112.79,1928.82 1107.65,1924.65C1102.52,1920.47 1101.5,1913.03 1105.31,1907.62C1105.96,1906.7 1106.3,1906.22 1106.3,1906.22C1106.3,1906.22 1090.53,1908.46 1087.64,1905.38C1084.76,1902.29 1089,1887.69 1089,1887.69C1089,1887.69 1088.49,1888 1087.54,1888.58C1081.88,1892.02 1074.52,1890.5 1070.71,1885.09C1066.89,1879.68 1067.91,1872.24 1073.05,1868.06C1073.92,1867.35 1074.38,1866.98 1074.38,1866.98C1074.38,1866.98 1058.33,1864.85 1056.39,1861.1C1054.44,1857.35 1062.71,1844.47 1062.71,1844.47C1062.71,1844.47 1062.14,1844.63 1061.07,1844.93C1054.69,1846.72 1048.02,1843.27 1045.8,1837.03C1043.59,1830.79 1046.58,1823.9 1052.65,1821.26C1053.68,1820.82 1054.22,1820.58 1054.22,1820.58C1054.22,1820.58 1039.1,1814.16 1038.24,1810.03C1037.38,1805.89 1049.06,1795.76 1049.06,1795.76C1049.06,1795.76 1048.47,1795.76 1047.35,1795.76C1040.73,1795.76 1035.24,1790.63 1034.79,1784.03C1034.34,1777.42 1039.08,1771.6 1045.64,1770.7C1046.75,1770.55 1047.33,1770.47 1047.33,1770.47C1047.33,1770.47 1034.25,1760.17 1034.54,1755.96C1034.83,1751.74 1049.06,1745.17 1049.06,1745.17C1049.06,1745.17 1048.49,1745.01 1047.42,1744.71C1041.04,1742.93 1037.14,1736.51 1038.48,1730.03C1039.83,1723.54 1045.97,1719.21 1052.53,1720.12C1053.64,1720.27 1054.22,1720.35 1054.22,1720.35C1054.22,1720.35 1044.15,1706.87 1045.57,1702.89C1046.98,1698.91 1062.71,1696.46 1062.71,1696.46C1062.71,1696.46 1062.21,1696.15 1061.25,1695.57C1055.59,1692.13 1053.57,1684.9 1056.61,1679.02C1059.66,1673.14 1066.74,1670.63 1072.81,1673.27C1073.83,1673.71 1074.38,1673.95 1074.38,1673.95C1074.38,1673.95 1068.06,1658.22 1070.5,1654.77C1072.94,1651.32 1089,1653.24 1089,1653.24C1089,1653.24 1088.59,1652.81 1087.83,1651.99C1083.31,1647.15 1083.31,1639.64 1087.83,1634.8C1092.35,1629.96 1099.84,1629.45 1104.98,1633.63C1105.84,1634.34 1106.3,1634.71 1106.3,1634.71C1106.3,1634.71 1104.22,1617.83 1107.49,1615.16C1110.77,1612.5 1125.97,1618.71 1125.97,1618.71C1125.97,1618.71 1125.69,1618.18 1125.18,1617.19C1122.13,1611.31 1124.16,1604.08 1129.82,1600.64C1135.47,1597.2 1142.83,1598.73 1146.64,1604.14C1147.29,1605.05 1147.63,1605.54 1147.63,1605.54C1147.63,1605.54 1149.92,1588.68 1153.8,1587C1157.68,1585.32 1170.88,1595.44 1170.88,1595.44C1170.88,1595.44 1170.76,1594.86 1170.53,1593.76C1169.18,1587.28 1173.09,1580.86 1179.46,1579.07C1185.84,1577.29 1192.51,1580.75 1194.72,1586.99C1195.1,1588.04 1195.3,1588.6 1195.3,1588.6C1195.3,1588.6 1201.8,1572.95 1205.99,1572.38C1210.17,1571.8 1220.41,1585.14 1220.41,1585.14C1220.41,1585.14 1220.45,1584.55 1220.53,1583.44ZM1238.43,1793.26C1265.37,1793.26 1287.23,1815.13 1287.23,1842.06C1287.23,1869 1265.37,1890.86 1238.43,1890.86C1211.5,1890.86 1189.63,1869 1189.63,1842.06C1189.63,1815.13 1211.5,1793.26 1238.43,1793.26ZM1147.41,1728.56C1170.05,1728.56 1188.43,1746.95 1188.43,1769.59C1188.43,1792.24 1170.05,1810.62 1147.41,1810.62C1124.76,1810.62 1106.38,1792.24 1106.38,1769.59C1106.38,1746.95 1124.76,1728.56 1147.41,1728.56ZM1292.9,1640.16C1329.93,1640.16 1360,1670.23 1360,1707.26C1360,1744.29 1329.93,1774.35 1292.9,1774.35C1255.87,1774.35 1225.81,1744.29 1225.81,1707.26C1225.81,1670.23 1255.87,1640.16 1292.9,1640.16Z"/>
    </g>
</svg>
